/* XPM */
static char *jact_icon[] = {
/* columns rows colors chars-per-pixel */
"32 32 104 2",
"   c #7FF500000000",
".  c #804D00000000",
"X  c #816100000000",
"o  c #826B00000000",
"O  c #837F00000000",
"+  c #847E00000000",
"@  c #858100000000",
"#  c #867600000000",
"$  c #87BC00000000",
"%  c #888300000000",
"&  c #899700000000",
"*  c #8A9600000000",
"=  c #8BAB00000000",
"-  c #8C9200000000",
";  c #8D5400000000",
":  c #8E9E00000000",
">  c #8FBF00000000",
",  c #909900000000",
"<  c #919E00000000",
"1  c #929300000000",
"2  c #939F00000000",
"3  c #94A900000000",
"4  c #959C00000000",
"5  c #966A00000000",
"6  c #979D00000000",
"7  c #989900000000",
"8  c #99A600000000",
"9  c #9ACB00000000",
"0  c #9BAD00000000",
"q  c #9C9400000000",
"w  c #9D8D00000000",
"e  c #9E9A00000000",
"r  c #9F7000000000",
"t  c #9F1804140414",
"y  c #9F4004FD04FD",
"u  c #A06F00000000",
"i  c #A1E400000000",
"p  c #A2AA00000000",
"a  c #A3FF00000000",
"s  c #A33302DE02DE",
"d  c #A47300000000",
"f  c #A55500000000",
"g  c #A55900940094",
"h  c #A6C200000000",
"j  c #A705019E019E",
"k  c #A22B07350735",
"l  c #A87600000000",
"z  c #A9B300000000",
"x  c #ADA600000000",
"c  c #A2590B3D0B3D",
"v  c #A74D0A420A42",
"b  c #A72F0E500E50",
"n  c #A7110F790F79",
"m  c #A923088F088F",
"M  c #AA4214EB14EB",
"N  c #AEBF26752675",
"B  c #AEDB286F286F",
"V  c #B3C72E0F2E0F",
"C  c #B6BB30A730A7",
"Z  c #C1E429062906",
"A  c #C2BA37AE37AE",
"S  c #B923401F401F",
"D  c #C3F15AAD5AAD",
"F  c #C78A5AD35AD3",
"G  c #C4905F0F5F0F",
"H  c #C6BC5FDF5FDF",
"J  c #CA7F5DA95DA9",
"K  c #C838670A670A",
"L  c #CB6562806280",
"P  c #C8F36BD96BD9",
"I  c #CC4B6A186A18",
"U  c #CEFE70097009",
"Y  c #CF3373167316",
"T  c #CF2E77347734",
"R  c #D0BD7A4E7A4E",
"E  c #DD4E9D8B9D8B",
"W  c #E177AAF6AAF6",
"Q  c #E36EB09AB09A",
"!  c #E373B174B174",
"~  c #EEFFBED5BED5",
"^  c #EB1AC6B2C6B2",
"/  c #EE03CF3BCF3B",
"(  c #F1D5CB03CB03",
")  c #F591E333E333",
"_  c #F79CE7D7E7D7",
"`  c #F818EAA4EAA4",
"'  c #F8C2EC07EC07",
"]  c #FD6CEDFDEDFD",
"[  c #FD7EEE54EE54",
"{  c #FD61EEEAEEEA",
"}  c #FD93EEE6EEE6",
"|  c #FD87F002F002",
" . c #FB0AF17BF17B",
".. c #FDB9F107F107",
"X. c #FC7EF5D7F5D7",
"o. c #FD6BF8E4F8E4",
"O. c #FE21FA3AFA3A",
"+. c #FE38FB5CFB5C",
"@. c #FE5CFB83FB83",
"#. c #FEE0FD0AFD0A",
"$. c #FF3AFDBCFDBC",
"%. c #FFA6FF35FF35",
"&. c #FFF5FFFCFFFC",
"*. c None",
/* pixels */
"*.*.*.*.*.*.*.*.*.*.*.*.*.*.*.*.*.*.*.*.*.*.*.*.*.*.*.*.*.*.*.*.",
"*.*.*.*.*.*.*.*.*.*.*.*.*.*.*.*.*.*.*.*.*.*.*.*.*.*.*.*.*.*.*.*.",
"*.*.*.*.*.*.*.*.*.*.*.*.*.*.*.*.*.*.*.*.*.*.*.*.*.*.*.*.*.*.*.*.",
"*.*.*.*.*.*.*.*.*.*.*.*.*.*.*.*.*.*.*.*.*.*.*.*.*.*.*.*.*.*.*.*.",
"*.*.*.*.*.*.*.*.*.*.*.*.*.*.*.*.*.*.*.*.*.*.*.*.*.*.*.*.*.*.*.*.",
"*.*.*.*.*.*.*.*.*.*.*.*.*.*.*.*.*.*.*.*.*.*.*.*.*.*.*.*.*.*.*.*.",
"*.*.*.*.*.*.*.*.*.*.*.*.*.*.*.*.*.*.*.*.*.*.*.*.*.*.*.*.*.*.*.*.",
"*.*.*.*.*.*.*.*.*.*.*.*.*.*.*.*.*.*.*.*.*.*.*.*.*.*.*.*.*.*.*.*.",
"*.*.*.*.*.*.*.*.*.*.*.*.*.*.*.    *.*.*.*.*.*.*.*.*.*.*.*.*.*.*.",
"*.*.*.*.*.*.*.*.*.*.*.    *.  O   O     O *.*.*.*.*.*.*.*.*.*.*.",
"*.*.*.*.*.*.*.*.*.*.  O         O           *.*.*.*.*.*.*.*.*.*.",
"*.*.*.*.*.*.*.*.*.*.    O O # # # # O O O   *.*.*.*.*.*.*.*.*.*.",
"*.*.*.*.*.*.*.    O O # # * * > * > * * # # O     *.*.*.*.*.*.*.",
"*.*.*.*.*.*.*.  O O * * > 2 2 2 2 2 2 > > * # O O *.*.*.*.*.*.*.",
"*.*.*.*.*.*.*.O # * > 2 2 5 7 7 7 7 5 2 2 2 > * # *.*.*.*.*.*.*.",
"*.*.*.*.*.*.O # * > 2 5 7 7 q y y q q 7 5 2 2 > * # *.*.*.*.*.*.",
"*.*.*.*.*.O # * 2 5 7 7 c B n I G M N k q 7 7 2 > * O *.*.*.*.*.",
"*.*.*.*.  O * > 2 7 q q S / ! ` ) W ^ V i q q 7 2 > * O *.*.*.*.",
"*.*.*.*.*.# > 2 7 q N K W &.&.&.&.&.O.E L M q q 5 2 * *.*.*.*.*.",
"*.*.*.*.*.* 2 7 q q D X.&.&.&.&.&.&.&.&._ C i q 7 5 * *.*.*.*.*.",
"*.*.*.*.*.> 2 7 i v R &.&.&.&.&.&.&.&.&. .F m i q 7 2 *.*.*.*.*.",
"*.*.*.*.# > 5 q i R ` &.&.&.&.&.&.&.&.&.&._ I h i 7 2 > *.*.*.*.",
"*.*.*.# > 2 7 i h Y &.&.&.&.&.&.&.&.&.&.&.O.L h i q 5 > * *.*.*.",
"*.*.*.*.> 5 q i h P O.&.&.&.&.&.&.&.&.&.&.X.J l h i 7 > *.*.*.*.",
"*.*.*.*.*.q h l A ( ..| | | | | | | | | | | ~ Z x h q *.*.*.*.*.",
"*.*.*.*.*.*.*.*.*.*.*.*.*.*.*.*.*.*.*.*.*.*.*.*.*.*.*.*.*.*.*.*.",
"*.*.*.*.*.*.*.*.*.*.*.*.*.*.*.*.*.*.*.*.*.*.*.*.*.*.*.*.*.*.*.*.",
"*.*.*.*.*.*.*.*.*.*.*.*.*.*.*.*.*.*.*.*.*.*.*.*.*.*.*.*.*.*.*.*.",
"*.*.*.*.*.*.*.*.*.*.*.*.*.*.*.*.*.*.*.*.*.*.*.*.*.*.*.*.*.*.*.*.",
"*.*.*.*.*.*.*.*.*.*.*.*.*.*.*.*.*.*.*.*.*.*.*.*.*.*.*.*.*.*.*.*.",
"*.*.*.*.*.*.*.*.*.*.*.*.*.*.*.*.*.*.*.*.*.*.*.*.*.*.*.*.*.*.*.*.",
"*.*.*.*.*.*.*.*.*.*.*.*.*.*.*.*.*.*.*.*.*.*.*.*.*.*.*.*.*.*.*.*."
};
